<svg xmlns="http://www.w3.org/2000/svg" width="203" height="100" fill="none" viewBox="0 0 203 100"><g clip-path="url(#a)"><g fill="#006dec" filter="url(#b)"><path d="M10.133 82.826a1.3 1.3 0 0 1-1.387-1.206L4.94 27.213a1.3 1.3 0 0 1 1.206-1.388l11.699-.818a1.3 1.3 0 0 1 1.095.472l20.713 25.207a1.3 1.3 0 0 1-.914 2.122l-2.094.146c-1.056.074-1.753-1.078-1.198-1.979L52.61 23.12a1.3 1.3 0 0 1 1.016-.615l11.527-.806a1.3 1.3 0 0 1 1.388 1.206l3.804 54.408A1.3 1.3 0 0 1 69.14 78.7l-12.2.853a1.3 1.3 0 0 1-1.387-1.206l-1.276-18.246q-.512-7.328-.596-13.215-.002-4.072.232-8.124c.057-.985 1.368-1.223 1.784-.329a.96.96 0 0 1-.03.87L41.362 65.316a1.3 1.3 0 0 1-1.049.67l-3.955.277a1.3 1.3 0 0 1-1.136-.524L17.753 42.098a.96.96 0 0 1-.154-.818c.259-.958 1.592-.929 1.785.044a109 109 0 0 1 1.206 7.467q.806 5.672 1.358 13.57l1.276 18.247a1.3 1.3 0 0 1-1.206 1.387zm86.856-5.256q-5.374.376-9.895-2.253t-7.398-7.502q-2.879-4.872-3.333-11.386-.456-6.515 1.721-11.658 2.253-5.232 6.45-8.389 4.194-3.24 9.812-3.632 3.176-.222 5.85.573 2.75.708 4.818 2.2a16 16 0 0 1 3.682 3.507q1.045 1.379 1.723 2.936c.301.692-.278 1.408-1.029 1.336a1.06 1.06 0 0 1-.955-.98l-.581-8.313a1.3 1.3 0 0 1 1.206-1.387l11.534-.807c.716-.05 1.337.49 1.388 1.206l2.83 40.483a1.3 1.3 0 0 1-1.206 1.387l-11.697.818a1.3 1.3 0 0 1-1.387-1.206l-.563-8.04c-.039-.57.36-1.075.923-1.168.768-.127 1.418.559 1.166 1.295a14.3 14.3 0 0 1-1.386 2.906q-1.323 2.138-3.408 3.92-2.009 1.695-4.628 2.86-2.624 1.084-5.637 1.295m2.475-10.237q3.258-.227 5.592-1.946 2.336-1.718 3.444-4.578 1.185-2.946.923-6.692-.255-3.665-1.834-6.336-1.496-2.677-4.047-4.054-2.558-1.458-5.814-1.23-3.177.222-5.505 2.021-2.253 1.713-3.444 4.578t-.935 6.53q.262 3.745 1.846 6.499 1.578 2.671 4.047 4.054 2.551 1.376 5.727 1.154m33.824 24.882a1.3 1.3 0 0 1-1.387-1.206l-4.084-58.397a1.3 1.3 0 0 1 1.206-1.387l11.717-.82a1.3 1.3 0 0 1 1.383 1.163l.73 7.03a.958.958 0 0 1-1.203 1.024c-.468-.127-.774-.586-.656-1.057q.548-2.185 2.267-4.163 2.127-2.358 5.368-3.976a18.2 18.2 0 0 1 6.907-1.874q5.618-.393 10.139 2.237 4.596 2.543 7.474 7.415 2.953 4.785 3.409 11.3.45 6.432-1.722 11.657-2.171 5.226-6.363 8.464-4.198 3.158-9.817 3.55a19 19 0 0 1-7.263-.882q-3.44-1.233-5.968-3.429-2.054-1.785-2.939-3.87c-.235-.553.041-1.17.575-1.442.8-.408 1.757.133 1.819 1.03l1.776 25.396a1.3 1.3 0 0 1-1.206 1.387zm22.067-28.791q3.176-.222 5.511-1.94t3.525-4.584q1.185-2.946.929-6.611t-1.834-6.336-4.129-4.048q-2.469-1.382-5.727-1.154-3.257.227-5.592 1.945-2.34 1.637-3.525 4.584-1.191 2.865-.935 6.53.256 3.663 1.84 6.417 1.578 2.671 4.129 4.048 2.552 1.376 5.808 1.149"/></g><g filter="url(#c)"><path fill="#ff934f" d="M178.357 9.916c-.323-4.778 3.097-8.604 7.978-8.923 4.693-.306 8.558 3.122 8.891 7.888.336 4.794-3.08 8.67-7.917 8.985-4.825.315-8.62-3.056-8.952-7.95"/></g><g filter="url(#d)"><path fill="#006dec" d="M196.975 48.43c.449 6.417.858 12.836 1.375 19.255.126 1.563-.293 2.03-1.638 2.092-3.884.181-7.766.472-11.639.807-1.033.092-1.387-.212-1.472-1.423a7647 7647 0 0 0-2.871-39.442c-.1-1.359.291-1.74 1.422-1.8a328 328 0 0 0 11.778-.83c1.279-.115 1.617.428 1.705 1.768.405 6.53.884 13.054 1.34 19.573"/></g></g><defs><filter id="b" width="179.696" height="78.524" x=".938" y="21.696" color-interpolation-filters="sRGB" filterUnits="userSpaceOnUse"><feFlood flood-opacity="0" result="BackgroundImageFix"/><feColorMatrix in="SourceAlpha" result="hardAlpha" values="0 0 0 0 0 0 0 0 0 0 0 0 0 0 0 0 0 0 127 0"/><feOffset dy="4"/><feGaussianBlur stdDeviation="2"/><feComposite in2="hardAlpha" operator="out"/><feColorMatrix values="0 0 0 0 0 0 0 0 0 0 0 0 0 0 0 0 0 0 0.25 0"/><feBlend in2="BackgroundImageFix" result="effect1_dropShadow_13964_38180"/><feBlend in="SourceGraphic" in2="effect1_dropShadow_13964_38180" result="shape"/></filter><filter id="c" width="24.913" height="24.912" x="174.336" y=".975" color-interpolation-filters="sRGB" filterUnits="userSpaceOnUse"><feFlood flood-opacity="0" result="BackgroundImageFix"/><feColorMatrix in="SourceAlpha" result="hardAlpha" values="0 0 0 0 0 0 0 0 0 0 0 0 0 0 0 0 0 0 127 0"/><feOffset dy="4"/><feGaussianBlur stdDeviation="2"/><feComposite in2="hardAlpha" operator="out"/><feColorMatrix values="0 0 0 0 0 0 0 0 0 0 0 0 0 0 0 0 0 0 0.25 0"/><feBlend in2="BackgroundImageFix" result="effect1_dropShadow_13964_38180"/><feBlend in="SourceGraphic" in2="effect1_dropShadow_13964_38180" result="shape"/></filter><filter id="d" width="25.656" height="51.525" x="176.715" y="27.074" color-interpolation-filters="sRGB" filterUnits="userSpaceOnUse"><feFlood flood-opacity="0" result="BackgroundImageFix"/><feColorMatrix in="SourceAlpha" result="hardAlpha" values="0 0 0 0 0 0 0 0 0 0 0 0 0 0 0 0 0 0 127 0"/><feOffset dy="4"/><feGaussianBlur stdDeviation="2"/><feComposite in2="hardAlpha" operator="out"/><feColorMatrix values="0 0 0 0 0 0 0 0 0 0 0 0 0 0 0 0 0 0 0.25 0"/><feBlend in2="BackgroundImageFix" result="effect1_dropShadow_13964_38180"/><feBlend in="SourceGraphic" in2="effect1_dropShadow_13964_38180" result="shape"/></filter><clipPath id="a"><path fill="#fff" d="M0 0h203v100H0z"/></clipPath></defs></svg>